<svg width="24" height="24" viewBox="0 0 24 24" fill="none" xmlns="http://www.w3.org/2000/svg">
<path d="M12 7L8 10V14L12 17L16 14V10L12 7Z" fill="#2AB361"/>
<path d="M8 0L4 3V7L8 10L12 7V3L8 0Z" fill="#17A1CD"/>
<path d="M16 0L12 3V7L16 10L20 7V3L16 0Z" fill="#6366F1"/>
<path d="M20 7L16 10V14L20 17L24 14V10L20 7Z" fill="#2488B3"/>
<path d="M8 14L4 17V21L8 24L12 21V17L8 14Z" fill="#2488B3"/>
<path d="M16 14L12 17V21L16 24L20 21V17L16 14Z" fill="#6366F1"/>
<path d="M4 7L0 10V14L4 17L8 14V10L4 7Z" fill="#6366F1"/>
<path d="M7.31605 7V3.36364H9.76634V3.99751H8.08487V4.86399H9.64027V5.49787H8.08487V6.36612H9.77344V7H7.31605Z" fill="white"/>
<path d="M14.3161 3.36364H15.2642L16.2656 5.80682H16.3082L17.3097 3.36364H18.2578V7H17.5121V4.63317H17.4819L16.5408 6.98224H16.033L15.092 4.62429H15.0618V7H14.3161V3.36364Z" fill="white"/>
<path d="M18.3161 14V10.3636H20.7663V10.9975H19.0849V11.864H20.6403V12.4979H19.0849V13.3661H20.7734V14H18.3161Z" fill="white"/>
<path d="M2.31605 14V10.3636H4.76634V10.9975H3.08487V11.864H4.64027V12.4979H3.08487V13.3661H4.77344V14H2.31605Z" fill="white"/>
<path d="M14.3161 21V17.3636H15.7507C16.0253 17.3636 16.2597 17.4128 16.4538 17.511C16.6491 17.6081 16.7977 17.746 16.8995 17.9247C17.0025 18.1023 17.054 18.3112 17.054 18.5515C17.054 18.793 17.0019 19.0007 16.8977 19.1747C16.7936 19.3475 16.6426 19.4801 16.445 19.5724C16.2485 19.6648 16.0105 19.7109 15.7312 19.7109H14.7706V19.093H15.6069C15.7537 19.093 15.8756 19.0729 15.9727 19.0327C16.0697 18.9924 16.1419 18.9321 16.1893 18.8516C16.2378 18.7711 16.2621 18.671 16.2621 18.5515C16.2621 18.4308 16.2378 18.329 16.1893 18.2461C16.1419 18.1632 16.0691 18.1005 15.9709 18.0579C15.8738 18.0141 15.7513 17.9922 15.6033 17.9922H15.0849V21H14.3161ZM16.2798 19.3452L17.1836 21H16.3349L15.4506 19.3452H16.2798Z" fill="white"/>
<path d="M8.72727 18.5391C8.70241 18.4527 8.6675 18.3763 8.62251 18.31C8.57753 18.2425 8.52249 18.1857 8.45739 18.1396C8.39347 18.0922 8.32008 18.0561 8.23722 18.0312C8.15554 18.0064 8.06499 17.994 7.96555 17.994C7.77971 17.994 7.61636 18.0401 7.4755 18.1325C7.33582 18.2248 7.22692 18.3591 7.14879 18.5355C7.07067 18.7107 7.03161 18.925 7.03161 19.1783C7.03161 19.4316 7.07008 19.647 7.14702 19.8246C7.22396 20.0021 7.33286 20.1377 7.47372 20.2312C7.61458 20.3235 7.78089 20.3697 7.97266 20.3697C8.14666 20.3697 8.29522 20.3389 8.41832 20.2773C8.54261 20.2146 8.63731 20.1264 8.70241 20.0128C8.7687 19.8991 8.80185 19.7648 8.80185 19.6097L8.9581 19.6328H8.0206V19.054H9.54226V19.5121C9.54226 19.8317 9.47479 20.1063 9.33984 20.3359C9.2049 20.5644 9.01906 20.7408 8.78232 20.8651C8.54557 20.9882 8.2745 21.0497 7.96911 21.0497C7.6282 21.0497 7.32872 20.9746 7.07067 20.8242C6.81262 20.6727 6.61139 20.4579 6.46697 20.1797C6.32375 19.9003 6.25213 19.5689 6.25213 19.1854C6.25213 18.8906 6.29474 18.6278 6.37997 18.397C6.46638 18.165 6.58712 17.9685 6.74219 17.8075C6.89725 17.6465 7.07777 17.524 7.28374 17.44C7.4897 17.3559 7.71283 17.3139 7.95312 17.3139C8.15909 17.3139 8.35085 17.3441 8.52841 17.4045C8.70597 17.4637 8.8634 17.5477 9.00071 17.6566C9.1392 17.7655 9.25225 17.8951 9.33984 18.0455C9.42744 18.1946 9.48366 18.3591 9.50852 18.5391H8.72727Z" fill="white"/>
<path d="M9.97639 9.26936C9.76811 9.47764 9.76811 9.81533 9.97639 10.0236C10.1847 10.2319 10.5224 10.2319 10.7306 10.0236C10.9389 9.81533 10.9389 9.47764 10.7306 9.26936C10.5224 9.06108 10.1847 9.06108 9.97639 9.26936ZM11.9764 11.2694C11.7681 11.4776 11.7681 11.8153 11.9764 12.0236C12.1847 12.2319 12.5224 12.2319 12.7306 12.0236C12.9389 11.8153 12.9389 11.4776 12.7306 11.2694C12.5224 11.0611 12.1847 11.0611 11.9764 11.2694ZM10.2828 9.7172L12.2828 11.7172L12.4242 11.5758L10.4242 9.57577L10.2828 9.7172Z" fill="#F5F5F5"/>
<path d="M9.53767 13.2659C9.68452 13.5212 10.0105 13.6092 10.2659 13.4623C10.5212 13.3155 10.6092 12.9895 10.4623 12.7341C10.3155 12.4788 9.98945 12.3908 9.73411 12.5377C9.47878 12.6845 9.39083 13.0105 9.53767 13.2659ZM11.8912 11.9124C12.038 12.1677 12.3641 12.2557 12.6194 12.1088C12.8747 11.962 12.9627 11.6359 12.8158 11.3806C12.669 11.1253 12.343 11.0373 12.0876 11.1842C11.8323 11.331 11.7443 11.657 11.8912 11.9124ZM10.0499 13.0867L12.4034 11.7332L12.3037 11.5598L9.95015 12.9133L10.0499 13.0867Z" fill="#F5F5F5"/>
<path d="M11.9208 14.5274C12.2121 14.5712 12.4837 14.3705 12.5274 14.0792C12.5712 13.7879 12.3705 13.5163 12.0792 13.4726C11.7879 13.4288 11.5163 13.6295 11.4726 13.9208C11.4288 14.2121 11.6295 14.4837 11.9208 14.5274ZM12.2743 12.1739C12.5656 12.2177 12.8372 12.017 12.8809 11.7257C12.9247 11.4344 12.724 11.1628 12.4327 11.1191C12.1415 11.0753 11.8699 11.276 11.8261 11.5673C11.7823 11.8585 11.983 12.1301 12.2743 12.1739ZM12.0989 14.0149L12.4524 11.6613L12.2546 11.6316L11.9011 13.9851L12.0989 14.0149Z" fill="#F5F5F5"/>
<path d="M14.412 13.3387C14.599 13.1111 14.5662 12.7751 14.3387 12.588C14.1111 12.401 13.7751 12.4338 13.588 12.6613C13.401 12.8889 13.4338 13.2249 13.6613 13.412C13.8889 13.599 14.2249 13.5662 14.412 13.3387ZM12.7655 11.9852C12.9526 11.7576 12.9197 11.4215 12.6922 11.2345C12.4647 11.0474 12.1286 11.0803 11.9415 11.3078C11.7545 11.5353 11.7873 11.8714 12.0148 12.0585C12.2424 12.2455 12.5785 12.2127 12.7655 11.9852ZM14.0635 12.9228L12.417 11.5692L12.29 11.7237L13.9365 13.0772L14.0635 12.9228Z" fill="#F5F5F5"/>
<path d="M14.3771 9.62288C14.1688 9.4146 13.8312 9.4146 13.6229 9.62288C13.4146 9.83116 13.4146 10.1688 13.6229 10.3771C13.8312 10.5854 14.1688 10.5854 14.3771 10.3771C14.5854 10.1688 14.5854 9.83116 14.3771 9.62288ZM12.7306 11.2694C12.5224 11.0611 12.1847 11.0611 11.9764 11.2694C11.7681 11.4776 11.7681 11.8153 11.9764 12.0236C12.1847 12.2319 12.5224 12.2319 12.7306 12.0236C12.9389 11.8153 12.9389 11.4776 12.7306 11.2694ZM13.9293 9.92929L12.2828 11.5758L12.4242 11.7172L14.0707 10.0707L13.9293 9.92929Z" fill="#F5F5F5"/>
</svg>
