<svg width="89" height="93" viewBox="0 0 89 93" fill="none" xmlns="http://www.w3.org/2000/svg">
<path d="M0 64.4449V71.3357C0 72.6099 1.00125 73.6449 2.2339 73.6449H6.67055C7.26225 73.6437 7.8293 73.3999 8.24728 72.9669C8.66525 72.534 8.9 71.9474 8.9 71.3357V64.4449C8.9 60.0335 12.4644 53.9891 17.8 51.6615V41.9785C7.4938 44.4441 0 55.1069 0 64.4449ZM53.6892 21.6695L42.4307 30.4003C40.8866 31.5963 39.0087 32.2449 37.0774 32.2449H26.7222C24.2525 32.2449 22.25 34.3149 22.25 36.8679V55.2265C22.25 57.7749 24.2525 59.8449 26.7222 59.8449H37.0774C39.0087 59.8449 40.8866 60.4935 42.4307 61.6895L53.6937 70.4203C56.3918 72.5134 59.6742 73.6449 63.0476 73.6449H71.2V18.4449H63.0476C59.6745 18.4449 56.3904 19.5765 53.6892 21.6695ZM75.65 27.6449V36.8449H89V27.6449H75.65ZM75.65 64.4449H89V55.2449H75.65V64.4449Z" fill="#F5F5F5"/>
</svg>
