<svg width="66" height="58" viewBox="0 0 66 58" fill="none" xmlns="http://www.w3.org/2000/svg">
<path d="M21 3H13C7.47715 3 3 7.47715 3 13V22" stroke="#2488B3" stroke-width="5" stroke-linecap="round" stroke-linejoin="round"/>
<path d="M62.9708 21.5984L62.7888 12.9978C62.6719 7.47615 58.101 3.09643 52.5795 3.21538L44.142 3.39715" stroke="#2488B3" stroke-width="5" stroke-linecap="round" stroke-linejoin="round"/>
<path d="M44.5608 54.8718L53 54.8455C58.5229 54.8283 62.9863 50.3372 62.9694 44.8144L62.943 36.2118" stroke="#2488B3" stroke-width="5" stroke-linecap="round" stroke-linejoin="round"/>
<path d="M2.98029 36.4029L3.18867 45.0029C3.32246 50.5242 7.9067 54.8896 13.4279 54.7535L21.8647 54.5454" stroke="#2488B3" stroke-width="5" stroke-linecap="round" stroke-linejoin="round"/>
<path d="M49.5 28C49.5 37.1528 42.297 44.5 33.5 44.5C24.703 44.5 17.5 37.1528 17.5 28C17.5 18.8472 24.703 11.5 33.5 11.5C42.297 11.5 49.5 18.8472 49.5 28Z" stroke="#2488B3" stroke-width="3"/>
<path d="M42.5 28C42.5 32.6693 38.4964 36.5 33.5 36.5C28.5036 36.5 24.5 32.6693 24.5 28C24.5 23.3307 28.5036 19.5 33.5 19.5C38.4964 19.5 42.5 23.3307 42.5 28Z" fill="#2488B3" stroke="#2488B3"/>
</svg>
