<svg width="90" height="80" viewBox="0 0 90 80" fill="none" xmlns="http://www.w3.org/2000/svg">
<rect x="1.5" y="1.5" width="87" height="70" rx="18.5" stroke="#2488B3" stroke-width="3"/>
<path d="M14 56L22.9706 43L29.25 51.5L37.3235 27L44.0515 42L53.9191 31.5L61.9926 47L75 14" stroke="#2488B3" stroke-width="5" stroke-linecap="round" stroke-linejoin="round"/>
<circle cx="23" cy="44" r="4" fill="#CA1F86"/>
<circle cx="13" cy="57" r="4" fill="#CA1F86"/>
<circle cx="30" cy="53" r="4" fill="#CA1F86"/>
<circle cx="37" cy="28" r="4" fill="#CA1F86"/>
<circle cx="45" cy="43" r="4" fill="#CA1F86"/>
<circle cx="54" cy="31" r="4" fill="#CA1F86"/>
<circle cx="62" cy="47" r="4" fill="#CA1F86"/>
<circle cx="76" cy="15" r="4" fill="#CA1F86"/>
<path d="M11.3444 25.2449C10.9274 25.607 10.8828 26.2386 11.2449 26.6556C11.607 27.0726 12.2386 27.1172 12.6556 26.7551L11.3444 25.2449ZM62.7498 12.6617C63.1152 12.2476 63.0758 11.6156 62.6617 11.2502L55.9135 5.29521C55.4994 4.92978 54.8674 4.96924 54.502 5.38334C54.1366 5.79744 54.176 6.42937 54.5901 6.7948L60.5885 12.0881L55.2952 18.0865C54.9298 18.5006 54.9692 19.1326 55.3833 19.498C55.7974 19.8634 56.4294 19.824 56.7948 19.4099L62.7498 12.6617ZM14.056 25.6391C14.501 25.312 14.5966 24.6861 14.2695 24.2411C13.9424 23.7961 13.3165 23.7005 12.8715 24.0276L14.056 25.6391ZM16.1368 21.935C15.6557 22.2063 15.4857 22.8162 15.757 23.2973C16.0283 23.7783 16.6382 23.9484 17.1192 23.6771L16.1368 21.935ZM20.3919 22.0182C20.894 21.7883 21.1147 21.1948 20.8847 20.6927C20.6548 20.1905 20.0613 19.9699 19.5591 20.1998L20.3919 22.0182ZM23.0802 18.7242C22.5647 18.9224 22.3074 19.501 22.5056 20.0165C22.7038 20.532 23.2824 20.7892 23.7979 20.591L23.0802 18.7242ZM27.2917 19.348C27.8162 19.1751 28.1013 18.6097 27.9283 18.0852C27.7554 17.5607 27.1901 17.2757 26.6655 17.4486L27.2917 19.348ZM30.2945 16.3334C29.7636 16.4856 29.4565 17.0393 29.6086 17.5702C29.7608 18.1011 30.3145 18.4082 30.8454 18.2561L30.2945 16.3334ZM34.4422 17.291C34.9778 17.1564 35.303 16.6131 35.1684 16.0775C35.0339 15.5419 34.4906 15.2167 33.9549 15.3513L34.4422 17.291ZM37.6391 14.4824C37.0999 14.6017 36.7594 15.1356 36.8787 15.6748C36.998 16.2141 37.5318 16.5545 38.0711 16.4352L37.6391 14.4824ZM41.7245 15.6761C42.2666 15.5704 42.6204 15.0453 42.5147 14.5032C42.4091 13.9611 41.884 13.6073 41.3419 13.713L41.7245 15.6761ZM45.0593 13.0331C44.5149 13.1263 44.1492 13.6432 44.2424 14.1875C44.3356 14.7319 44.8524 15.0977 45.3968 15.0045L45.0593 13.0331ZM49.0832 14.4146C49.6294 14.3333 50.0063 13.8245 49.9249 13.2782C49.8435 12.7319 49.3347 12.3551 48.7884 12.4365L49.0832 14.4146ZM52.5349 11.9189C51.987 11.9887 51.5994 12.4893 51.6692 13.0372C51.7389 13.5851 52.2396 13.9727 52.7874 13.9029L52.5349 11.9189ZM56.4974 13.4719C57.0466 13.4143 57.4453 12.9224 57.3877 12.3731C57.3301 11.8238 56.8382 11.4252 56.2889 11.4828L56.4974 13.4719ZM60.0581 11.1352C59.5075 11.1785 59.0963 11.66 59.1397 12.2105C59.183 12.7611 59.6645 13.1723 60.2151 13.129L60.0581 11.1352ZM12.6556 26.7551C13.0929 26.3755 13.5602 26.0035 14.056 25.6391L12.8715 24.0276C12.3358 24.4213 11.8258 24.8269 11.3444 25.2449L12.6556 26.7551ZM17.1192 23.6771C18.1444 23.0989 19.239 22.5462 20.3919 22.0182L19.5591 20.1998C18.3621 20.748 17.2168 21.3259 16.1368 21.935L17.1192 23.6771ZM23.7979 20.591C24.9288 20.1562 26.0964 19.7421 27.2917 19.348L26.6655 17.4486C25.4425 17.8517 24.2442 18.2767 23.0802 18.7242L23.7979 20.591ZM30.8454 18.2561C32.0305 17.9165 33.232 17.595 34.4422 17.291L33.9549 15.3513C32.7251 15.6602 31.5022 15.9874 30.2945 16.3334L30.8454 18.2561ZM38.0711 16.4352C39.2913 16.1653 40.5118 15.9124 41.7245 15.6761L41.3419 13.713C40.1137 13.9524 38.8767 14.2087 37.6391 14.4824L38.0711 16.4352ZM45.3968 15.0045C46.6467 14.7905 47.8786 14.5941 49.0832 14.4146L48.7884 12.4365C47.5702 12.618 46.324 12.8166 45.0593 13.0331L45.3968 15.0045ZM52.7874 13.9029C54.077 13.7388 55.3182 13.5954 56.4974 13.4719L56.2889 11.4828C55.0951 11.6079 53.8391 11.7529 52.5349 11.9189L52.7874 13.9029ZM60.2151 13.129C60.8635 13.0779 61.4804 13.0344 62.0623 12.9981L61.9377 11.0019C61.3444 11.039 60.7167 11.0833 60.0581 11.1352L60.2151 13.129Z" fill="#2488B3"/>
<path d="M36.8849 66.9495C36.3363 66.8859 35.9431 66.3896 36.0067 65.841C36.0704 65.2924 36.5667 64.8992 37.1153 64.9628L36.8849 66.9495ZM79.8895 46.9346C80.4384 46.8736 80.9329 47.2691 80.9939 47.818L81.9884 56.7629C82.0494 57.3118 81.6539 57.8062 81.105 57.8672C80.5561 57.9283 80.0617 57.5328 80.0006 56.9839L79.1167 49.0329L71.1656 49.9168C70.6167 49.9779 70.1223 49.5824 70.0613 49.0335C70.0002 48.4846 70.3957 47.9901 70.9446 47.9291L79.8895 46.9346ZM39.0814 65.1447C39.6323 65.1828 40.0481 65.6603 40.01 66.2113C39.972 66.7622 39.4945 67.178 38.9435 67.14L39.0814 65.1447ZM43.0766 67.2324C42.5245 67.2458 42.0661 66.809 42.0527 66.2569C42.0393 65.7048 42.476 65.2463 43.0282 65.233L43.0766 67.2324ZM46.9668 64.9549C47.5154 64.8907 48.0121 65.2834 48.0762 65.832C48.1403 66.3805 47.7476 66.8772 47.1991 66.9414L46.9668 64.9549ZM51.2746 66.2778C50.7339 66.3907 50.2042 66.0439 50.0912 65.5033C49.9783 64.9627 50.3251 64.4329 50.8657 64.32L51.2746 66.2778ZM54.6959 63.3455C55.2249 63.1867 55.7824 63.4868 55.9412 64.0158C56.1 64.5447 55.8 65.1023 55.271 65.2611L54.6959 63.3455ZM59.1679 63.914C58.6536 64.1154 58.0735 63.8618 57.8721 63.3475C57.6707 62.8333 57.9243 62.2531 58.4385 62.0517L59.1679 63.914ZM62.0688 60.4638C62.5659 60.2232 63.1639 60.4312 63.4045 60.9283C63.6451 61.4254 63.4371 62.0235 62.94 62.264L62.0688 60.4638ZM66.5749 60.335C66.0969 60.6116 65.4851 60.4483 65.2085 59.9703C64.9319 59.4923 65.0952 58.8806 65.5732 58.6039L66.5749 60.335ZM68.9326 56.4958C69.3896 56.1857 70.0115 56.3049 70.3215 56.7619C70.6315 57.219 70.5124 57.8408 70.0553 58.1509L68.9326 56.4958ZM73.3741 55.7229C72.9403 56.0648 72.3115 55.9902 71.9697 55.5564C71.6279 55.1227 71.7024 54.4939 72.1362 54.1521L73.3741 55.7229ZM75.1578 51.5837C75.5645 51.2102 76.1971 51.2371 76.5707 51.6438C76.9443 52.0506 76.9174 52.6832 76.5106 53.0568L75.1578 51.5837ZM79.4307 50.1321C79.0595 50.541 78.4271 50.5717 78.0181 50.2005C77.6092 49.8293 77.5786 49.1969 77.9497 48.7879L79.4307 50.1321ZM37.1153 64.9628C37.7753 65.0394 38.4307 65.0997 39.0814 65.1447L38.9435 67.14C38.2621 67.0929 37.5759 67.0296 36.8849 66.9495L37.1153 64.9628ZM43.0282 65.233C44.3647 65.2005 45.6783 65.1055 46.9668 64.9549L47.1991 66.9414C45.8511 67.099 44.4762 67.1984 43.0766 67.2324L43.0282 65.233ZM50.8657 64.32C52.1733 64.0469 53.4508 63.7193 54.6959 63.3455L55.271 65.2611C53.9732 65.6507 52.6403 65.9925 51.2746 66.2778L50.8657 64.32ZM58.4385 62.0517C59.6893 61.5618 60.9003 61.0292 62.0688 60.4638L62.94 62.264C61.7271 62.851 60.4688 63.4044 59.1679 63.914L58.4385 62.0517ZM65.5732 58.6039C66.7493 57.9234 67.8703 57.2163 68.9326 56.4958L70.0553 58.1509C68.9552 58.8971 67.7938 59.6297 66.5749 60.335L65.5732 58.6039ZM72.1362 54.1521C73.2339 53.2871 74.2431 52.4237 75.1578 51.5837L76.5106 53.0568C75.5592 53.9306 74.5116 54.8266 73.3741 55.7229L72.1362 54.1521ZM77.9497 48.7879C78.4234 48.266 78.8471 47.7689 79.2191 47.3038L80.7809 48.5531C80.3809 49.0533 79.93 49.582 79.4307 50.1321L77.9497 48.7879Z" fill="#2488B3"/>
</svg>
